<svg width="58" height="58" viewBox="0 0 58 58" fill="none" xmlns="http://www.w3.org/2000/svg">
<g clip-path="url(#clip0_19_5)">
<path d="M29 -0.0616455C12.9756 -0.0616455 -0.0634766 12.9739 -0.0634766 29C-0.0634766 45.0261 12.9756 58.0616 29 58.0616C45.0243 58.0616 58.0634 45.0261 58.0634 29C58.0634 12.9739 45.0243 -0.0616455 29 -0.0616455ZM29 56.1259C14.0432 56.1259 1.8759 43.9567 1.8759 29C1.8759 14.0432 14.0432 1.8741 29 1.8741C43.9567 1.8741 56.124 14.0432 56.124 29C56.124 43.9567 43.9567 56.1259 29 56.1259Z" fill="#F8F8F8"/>
<path d="M35.3438 12.6875H30.508C24.3491 12.6258 23.5625 16.4375 23.5625 20.5628V23.5625H20.8438C20.7209 23.546 20.5959 23.5582 20.4784 23.5979C20.361 23.6376 20.2543 23.7039 20.1667 23.7916C20.079 23.8792 20.0127 23.9859 19.973 24.1034C19.9332 24.2208 19.9211 24.3458 19.9375 24.4687V29.9062C19.9211 30.0291 19.9332 30.1541 19.973 30.2715C20.0127 30.389 20.079 30.4957 20.1667 30.5833C20.2543 30.671 20.361 30.7373 20.4784 30.777C20.5959 30.8167 20.7209 30.8289 20.8438 30.8125H23.5625V44.4062C23.5474 44.5293 23.5607 44.6542 23.6012 44.7714C23.6418 44.8886 23.7086 44.995 23.7965 45.0825C23.8845 45.1699 23.9913 45.2361 24.1087 45.2759C24.2262 45.3158 24.3512 45.3283 24.4742 45.3125H30.0114C30.5461 45.3741 30.9793 44.9409 30.8089 44.4062L30.8125 30.8125H35.3438C35.4667 30.8289 35.5917 30.8167 35.7091 30.777C35.8265 30.7373 35.9332 30.671 36.0209 30.5833C36.1086 30.4957 36.1748 30.389 36.2146 30.2715C36.2543 30.1541 36.2664 30.0291 36.25 29.9062V24.4687C36.2664 24.3458 36.2543 24.2208 36.2146 24.1034C36.1748 23.9859 36.1086 23.8792 36.0209 23.7916C35.9332 23.7039 35.8265 23.6376 35.7091 23.5979C35.5917 23.5582 35.4667 23.546 35.3438 23.5625H30.8071L30.8125 20.8437C30.9883 19.6855 30.9883 19.874 32.0631 19.9375H35.3057C35.5576 19.8813 35.8259 19.9121 36.0144 19.729C36.2029 19.546 36.3116 19.2958 36.2482 19.0312V13.5937C36.2649 13.4709 36.2531 13.3459 36.2136 13.2285C36.1741 13.111 36.108 13.0043 36.0204 12.9166C35.9329 12.8289 35.8263 12.7626 35.7089 12.7228C35.5916 12.6831 35.4666 12.671 35.3438 12.6875V12.6875ZM34.3741 18.0235L32.1012 17.9365C29.2864 17.9365 29.0508 19.4644 29.0508 21.0286L29.0435 24.4651C29.0433 24.5923 29.0681 24.7184 29.1167 24.836C29.1652 24.9537 29.2365 25.0606 29.3264 25.1506C29.4163 25.2407 29.523 25.3122 29.6406 25.3609C29.7581 25.4097 29.8841 25.4348 30.0114 25.4348H34.4375V28.9365H30.015C29.7582 28.9365 29.5118 29.0384 29.33 29.2199C29.1482 29.4013 29.0458 29.6475 29.0453 29.9044L29.0435 43.5H25.375V29.9062C25.375 29.3715 25.0107 28.9383 24.4742 28.9383H21.75V25.4366H24.4742C24.6014 25.4368 24.7274 25.4119 24.8449 25.3634C24.9625 25.3149 25.0693 25.2437 25.1593 25.1538C25.3406 24.9708 25.3732 24.7243 25.3732 24.4669V20.561C25.3732 16.4973 26.1943 14.5616 30.5062 14.5616H34.3723V18.0235H34.3741Z" fill="white"/>
</g>
<defs>
<clipPath id="clip0_19_5">
<rect width="58" height="58" fill="white"/>
</clipPath>
</defs>
</svg>
