<svg width="58" height="58" viewBox="0 0 58 58" fill="none" xmlns="http://www.w3.org/2000/svg">
<g clip-path="url(#clip0_19_15)">
<path d="M29 -0.0616455C45.0244 -0.0616455 58.0635 12.9739 58.0635 29C58.0635 45.0261 45.0244 58.0616 29 58.0616C12.9757 58.0616 -0.0633979 45.0261 -0.0633979 29C-0.0633979 12.9739 12.9757 -0.0616455 29 -0.0616455ZM29 56.1259C43.9568 56.1259 56.1241 43.9567 56.1241 29C56.1241 14.0432 43.9568 1.8741 29 1.8741C14.0433 1.8741 1.87598 14.0432 1.87598 29C1.87598 43.9567 14.0433 56.1259 29 56.1259Z" fill="#F8F8F8"/>
<path fill-rule="evenodd" clip-rule="evenodd" d="M22.8159 14.09C24.4155 14.0164 24.9255 14 29 14C33.0745 14 33.5845 14.0177 35.1827 14.09C36.7809 14.1623 37.8718 14.4173 38.8264 14.7868C39.8259 15.1645 40.7327 15.755 41.4827 16.5186C42.2464 17.2673 42.8355 18.1727 43.2118 19.1736C43.5827 20.1282 43.8364 21.2191 43.91 22.8145C43.9836 24.4168 44 24.9268 44 29C44 33.0745 43.9823 33.5845 43.91 35.1841C43.8377 36.7795 43.5827 37.8705 43.2118 38.825C42.8354 39.826 42.2454 40.733 41.4827 41.4827C40.7327 42.2464 39.8259 42.8355 38.8264 43.2118C37.8718 43.5827 36.7809 43.8364 35.1855 43.91C33.5845 43.9836 33.0745 44 29 44C24.9255 44 24.4155 43.9823 22.8159 43.91C21.2205 43.8377 20.1295 43.5827 19.175 43.2118C18.174 42.8354 17.267 42.2453 16.5173 41.4827C15.7542 40.7336 15.1636 39.8271 14.7868 38.8264C14.4173 37.8718 14.1636 36.7809 14.09 35.1855C14.0164 33.5832 14 33.0732 14 29C14 24.9255 14.0177 24.4155 14.09 22.8173C14.1623 21.2191 14.4173 20.1282 14.7868 19.1736C15.1642 18.1728 15.7552 17.2663 16.5186 16.5173C17.2673 15.7543 18.1734 15.1638 19.1736 14.7868C20.1282 14.4173 21.2191 14.1636 22.8145 14.09H22.8159ZM35.0614 16.79C33.4795 16.7177 33.005 16.7027 29 16.7027C24.995 16.7027 24.5205 16.7177 22.9386 16.79C21.4755 16.8568 20.6818 17.1009 20.1527 17.3068C19.4532 17.5795 18.9527 17.9027 18.4277 18.4277C17.9301 18.9119 17.5471 19.5013 17.3068 20.1527C17.1009 20.6818 16.8568 21.4755 16.79 22.9386C16.7177 24.5205 16.7027 24.995 16.7027 29C16.7027 33.005 16.7177 33.4795 16.79 35.0614C16.8568 36.5245 17.1009 37.3182 17.3068 37.8473C17.5468 38.4977 17.93 39.0882 18.4277 39.5723C18.9118 40.07 19.5023 40.4532 20.1527 40.6932C20.6818 40.8991 21.4755 41.1432 22.9386 41.21C24.5205 41.2823 24.9936 41.2973 29 41.2973C33.0064 41.2973 33.4795 41.2823 35.0614 41.21C36.5245 41.1432 37.3182 40.8991 37.8473 40.6932C38.5468 40.4205 39.0473 40.0973 39.5723 39.5723C40.07 39.0882 40.4532 38.4977 40.6932 37.8473C40.8991 37.3182 41.1432 36.5245 41.21 35.0614C41.2823 33.4795 41.2973 33.005 41.2973 29C41.2973 24.995 41.2823 24.5205 41.21 22.9386C41.1432 21.4755 40.8991 20.6818 40.6932 20.1527C40.4205 19.4532 40.0973 18.9527 39.5723 18.4277C39.0881 17.9301 38.4987 17.5471 37.8473 17.3068C37.3182 17.1009 36.5245 16.8568 35.0614 16.79V16.79ZM27.0841 33.6241C28.1541 34.0695 29.3455 34.1296 30.4549 33.7942C31.5643 33.4587 32.5228 32.7485 33.1667 31.7849C33.8107 30.8212 34.1001 29.6639 33.9855 28.5106C33.871 27.3573 33.3596 26.2795 32.5386 25.4614C32.0153 24.9384 31.3826 24.5379 30.6859 24.2888C29.9893 24.0397 29.246 23.9482 28.5098 24.0208C27.7735 24.0935 27.0625 24.3284 26.4279 24.7088C25.7933 25.0892 25.251 25.6056 24.84 26.2207C24.4289 26.8359 24.1593 27.5345 24.0507 28.2663C23.9421 28.9981 23.997 29.7449 24.2116 30.453C24.4263 31.161 24.7952 31.8126 25.2919 32.361C25.7886 32.9093 26.4007 33.3407 27.0841 33.6241ZM23.5482 23.5482C24.2641 22.8322 25.1141 22.2643 26.0495 21.8769C26.9849 21.4894 27.9875 21.29 29 21.29C30.0125 21.29 31.0151 21.4894 31.9505 21.8769C32.8859 22.2643 33.7359 22.8322 34.4518 23.5482C35.1678 24.2641 35.7357 25.1141 36.1231 26.0495C36.5106 26.9849 36.71 27.9875 36.71 29C36.71 30.0125 36.5106 31.0151 36.1231 31.9505C35.7357 32.8859 35.1678 33.7359 34.4518 34.4518C33.0059 35.8977 31.0448 36.71 29 36.71C26.9552 36.71 24.9941 35.8977 23.5482 34.4518C22.1023 33.0059 21.29 31.0448 21.29 29C21.29 26.9552 22.1023 24.9941 23.5482 23.5482V23.5482ZM38.42 22.4382C38.5974 22.2708 38.7394 22.0696 38.8377 21.8463C38.9359 21.6231 38.9884 21.3824 38.9919 21.1385C38.9955 20.8947 38.9501 20.6526 38.8584 20.4266C38.7667 20.2006 38.6306 19.9952 38.4581 19.8228C38.2857 19.6503 38.0804 19.5142 37.8544 19.4225C37.6283 19.3308 37.3862 19.2854 37.1424 19.289C36.8985 19.2925 36.6578 19.345 36.4346 19.4432C36.2113 19.5415 36.0101 19.6835 35.8427 19.8609C35.5172 20.2059 35.339 20.6643 35.346 21.1385C35.3529 21.6128 35.5444 22.0657 35.8798 22.4011C36.2152 22.7366 36.6681 22.928 37.1424 22.935C37.6167 22.9419 38.075 22.7637 38.42 22.4382V22.4382Z" fill="#F8F8F8"/>
</g>
<defs>
<clipPath id="clip0_19_15">
<rect width="58" height="58" fill="white" transform="matrix(-1 0 0 1 58 0)"/>
</clipPath>
</defs>
</svg>
