<svg width="58" height="58" viewBox="0 0 58 58" fill="none" xmlns="http://www.w3.org/2000/svg">
<g clip-path="url(#clip0_19_9)">
<path d="M29 -0.0616455C45.0244 -0.0616455 58.0635 12.9739 58.0635 29C58.0635 45.0261 45.0244 58.0616 29 58.0616C12.9757 58.0616 -0.0633979 45.0261 -0.0633979 29C-0.0633979 12.9739 12.9757 -0.0616455 29 -0.0616455ZM29 56.1259C43.9568 56.1259 56.1241 43.9567 56.1241 29C56.1241 14.0432 43.9568 1.8741 29 1.8741C14.0433 1.8741 1.87598 14.0432 1.87598 29C1.87598 43.9567 14.0433 56.1259 29 56.1259Z" fill="#F8F8F8"/>
<path d="M13.0609 20.0209C12.8598 19.6487 12.6942 19.2585 12.5661 18.8554C12.5068 18.6684 12.5056 18.4679 12.5626 18.2802C12.6197 18.0925 12.7323 17.9266 12.8857 17.8042C13.039 17.6819 13.2259 17.609 13.4215 17.595C13.6172 17.5811 13.8125 17.6269 13.9816 17.7262C14.9104 18.278 15.9157 18.689 16.965 18.946C18.2387 17.7965 19.8929 17.1592 21.6086 17.1571C22.5408 17.1578 23.4632 17.3468 24.3205 17.7126C25.1779 18.0784 25.9525 18.6135 26.5981 19.286C27.2436 19.9584 27.7467 20.7543 28.0772 21.6259C28.4077 22.4974 28.5588 23.4268 28.5215 24.3582C32.5978 23.845 36.3201 21.7823 38.9162 18.598C39.0156 18.4774 39.1428 18.3826 39.2867 18.3216C39.4307 18.2606 39.5873 18.2352 39.7431 18.2477C39.899 18.2601 40.0495 18.31 40.182 18.3931C40.3144 18.4762 40.4249 18.59 40.5039 18.7249C41.0984 19.7452 41.4215 20.9008 41.4424 22.0815C41.4634 23.2622 41.1815 24.4285 40.6236 25.4692C40.7604 25.4923 40.8918 25.5402 41.0114 25.6106C41.158 25.7041 41.2786 25.8329 41.3623 25.9853C41.4459 26.1376 41.4898 26.3086 41.4899 26.4824C41.4899 28.5396 40.5746 30.4282 39.0992 31.7115L39.1627 31.7749C39.2741 31.9009 39.3507 32.0538 39.385 32.2184C39.4193 32.383 39.4102 32.5538 39.3584 32.7138C39.0508 33.6736 38.5371 34.5545 37.8533 35.2949C37.1695 36.0354 36.3322 36.6174 35.3999 37.0004C37.3147 37.9344 39.4575 38.2987 41.5733 38.0498C41.7908 38.0276 42.0095 38.0782 42.1951 38.1937C42.3808 38.3091 42.5229 38.4829 42.5992 38.6878C42.6724 38.8942 42.6738 39.1193 42.6031 39.3266C42.5323 39.5338 42.3936 39.7111 42.2095 39.8297C39.333 41.6758 35.9867 42.6566 32.5688 42.6554C21.3676 42.6554 14.6722 33.5566 14.6722 24.7605L14.674 24.4633C13.5884 23.6158 12.6455 22.6 11.8809 21.4545C11.7652 21.2814 11.7082 21.0755 11.7186 20.8675C11.7289 20.6594 11.806 20.4602 11.9383 20.2994C12.0707 20.1385 12.2513 20.0246 12.4535 19.9744C12.6557 19.9243 12.8687 19.9406 13.0609 20.0209V20.0209ZM16.2237 23.2018C16.3552 23.2964 16.4609 23.4224 16.5312 23.5684C16.6015 23.7143 16.6341 23.8756 16.6261 24.0374C16.6152 24.2766 16.6097 24.5195 16.6097 24.7587C16.6097 32.6032 22.5783 40.7178 32.567 40.7178C34.3485 40.7186 36.1174 40.4196 37.7997 39.8333C35.7849 39.4472 33.8922 38.5832 32.2806 37.3139C32.1237 37.1902 32.0089 37.0211 31.9518 36.8296C31.8947 36.6382 31.8981 36.4338 31.9616 36.2444C32.025 36.0549 32.1455 35.8897 32.3064 35.7714C32.4673 35.653 32.6609 35.5872 32.8606 35.583C33.6421 35.5681 34.4092 35.3697 35.0999 35.0038C35.7907 34.638 36.3858 34.1149 36.8372 33.4769C36.3787 33.446 35.9292 33.3699 35.4924 33.2521C35.281 33.1955 35.095 33.069 34.9647 32.8931C34.8345 32.7172 34.7677 32.5024 34.7753 32.2837C34.7829 32.0649 34.8644 31.8552 35.0064 31.6888C35.1485 31.5223 35.3428 31.4089 35.5576 31.3671C36.4403 31.1876 37.2575 30.7714 37.9219 30.1632C38.5863 29.555 39.0728 28.7777 39.3294 27.9143C38.8473 28.0357 38.3525 28.1064 37.8577 28.1227C37.4317 28.1209 37.0366 27.8599 36.9043 27.4503C36.772 27.0407 36.9279 26.5894 37.2886 26.3501C38.1414 25.7819 38.798 24.9643 39.1688 24.0089C39.5396 23.0536 39.6065 22.0071 39.3602 21.0123C36.2119 24.2427 31.9606 26.1664 27.4557 26.399C27.1367 26.4009 26.8576 26.2867 26.6637 26.0529C26.4697 25.819 26.3954 25.5091 26.4643 25.2119C26.7122 24.1443 26.6013 23.0248 26.1488 22.0266C25.6963 21.0284 24.9275 20.2072 23.9612 19.69C22.995 19.1728 21.8852 18.9885 20.8036 19.1656C19.722 19.3427 18.729 19.8714 17.9782 20.6697C17.8657 20.7898 17.7244 20.8792 17.5678 20.9297C17.4111 20.9801 17.2442 20.9898 17.0828 20.9579C16.7837 20.8981 16.4883 20.8292 16.1965 20.7495C16.3281 20.848 16.4648 20.9393 16.6061 21.0232C16.7941 21.1383 16.9372 21.314 17.0119 21.5214C17.0866 21.7288 17.0884 21.9554 17.0171 22.1639C16.9457 22.3725 16.8055 22.5505 16.6194 22.6686C16.4333 22.7868 16.2126 22.838 15.9935 22.8139L15.6636 22.7722C15.8453 22.9219 16.0321 23.0651 16.2237 23.2018V23.2018Z" fill="#F8F8F8"/>
</g>
<defs>
<clipPath id="clip0_19_9">
<rect width="58" height="58" fill="white" transform="matrix(-1 0 0 1 58 0)"/>
</clipPath>
</defs>
</svg>
